<mxfile host="app.diagrams.net" agent="Mozilla/5.0 (Windows NT 10.0; Win64; x64) AppleWebKit/537.36 (KHTML, like Gecko) Chrome/131.0.0.0 Safari/537.36" version="25.0.3">
  <diagram id="C5RBs43oDa-KdzZeNtuy" name="Page-1">
    <mxGraphModel dx="1290" dy="522" grid="1" gridSize="10" guides="1" tooltips="1" connect="1" arrows="1" fold="1" page="1" pageScale="1" pageWidth="827" pageHeight="1169" math="0" shadow="0">
      <root>
        <mxCell id="WIyWlLk6GJQsqaUBKTNV-0" />
        <mxCell id="WIyWlLk6GJQsqaUBKTNV-1" parent="WIyWlLk6GJQsqaUBKTNV-0" />
        <mxCell id="iAXqnbAJSWEMFmMfm-S6-12" style="edgeStyle=orthogonalEdgeStyle;rounded=0;orthogonalLoop=1;jettySize=auto;html=1;entryX=0;entryY=0.5;entryDx=0;entryDy=0;" edge="1" parent="WIyWlLk6GJQsqaUBKTNV-1" source="iAXqnbAJSWEMFmMfm-S6-0" target="iAXqnbAJSWEMFmMfm-S6-6">
          <mxGeometry relative="1" as="geometry" />
        </mxCell>
        <mxCell id="iAXqnbAJSWEMFmMfm-S6-0" value="&lt;div&gt;&amp;lt;&amp;lt;controller&amp;gt;&amp;gt;&lt;/div&gt;UpdateCarHandler" style="swimlane;fontStyle=1;align=center;verticalAlign=top;childLayout=stackLayout;horizontal=1;startSize=50;horizontalStack=0;resizeParent=1;resizeParentMax=0;resizeLast=0;collapsible=1;marginBottom=0;whiteSpace=wrap;html=1;" vertex="1" parent="WIyWlLk6GJQsqaUBKTNV-1">
          <mxGeometry x="99" y="322" width="160" height="80" as="geometry" />
        </mxCell>
        <mxCell id="iAXqnbAJSWEMFmMfm-S6-1" value="" style="line;strokeWidth=1;fillColor=none;align=left;verticalAlign=middle;spacingTop=-1;spacingLeft=3;spacingRight=3;rotatable=0;labelPosition=right;points=[];portConstraint=eastwest;strokeColor=inherit;" vertex="1" parent="iAXqnbAJSWEMFmMfm-S6-0">
          <mxGeometry y="50" width="160" height="30" as="geometry" />
        </mxCell>
        <mxCell id="iAXqnbAJSWEMFmMfm-S6-2" style="edgeStyle=orthogonalEdgeStyle;rounded=0;orthogonalLoop=1;jettySize=auto;html=1;entryX=0.5;entryY=0;entryDx=0;entryDy=0;" edge="1" parent="WIyWlLk6GJQsqaUBKTNV-1" source="iAXqnbAJSWEMFmMfm-S6-3" target="iAXqnbAJSWEMFmMfm-S6-0">
          <mxGeometry relative="1" as="geometry" />
        </mxCell>
        <mxCell id="iAXqnbAJSWEMFmMfm-S6-3" value="&lt;div&gt;&amp;lt;&amp;lt;boundary&amp;gt;&amp;gt;&lt;/div&gt;CarInputWindow" style="swimlane;fontStyle=1;align=center;verticalAlign=top;childLayout=stackLayout;horizontal=1;startSize=50;horizontalStack=0;resizeParent=1;resizeParentMax=0;resizeLast=0;collapsible=1;marginBottom=0;whiteSpace=wrap;html=1;" vertex="1" parent="WIyWlLk6GJQsqaUBKTNV-1">
          <mxGeometry x="99" y="158" width="160" height="80" as="geometry" />
        </mxCell>
        <mxCell id="iAXqnbAJSWEMFmMfm-S6-4" value="" style="line;strokeWidth=1;fillColor=none;align=left;verticalAlign=middle;spacingTop=-1;spacingLeft=3;spacingRight=3;rotatable=0;labelPosition=right;points=[];portConstraint=eastwest;strokeColor=inherit;" vertex="1" parent="iAXqnbAJSWEMFmMfm-S6-3">
          <mxGeometry y="50" width="160" height="30" as="geometry" />
        </mxCell>
        <mxCell id="iAXqnbAJSWEMFmMfm-S6-5" value="Car_comp&lt;div&gt;&lt;br&gt;&lt;/div&gt;" style="swimlane;fontStyle=1;align=center;verticalAlign=top;childLayout=stackLayout;horizontal=1;startSize=26;horizontalStack=0;resizeParent=1;resizeParentMax=0;resizeLast=0;collapsible=1;marginBottom=0;whiteSpace=wrap;html=1;" vertex="1" parent="WIyWlLk6GJQsqaUBKTNV-1">
          <mxGeometry x="360" y="274" width="160" height="200" as="geometry" />
        </mxCell>
        <mxCell id="iAXqnbAJSWEMFmMfm-S6-6" value="&lt;span style=&quot;background-color: initial;&quot;&gt;-&amp;nbsp;&lt;/span&gt;&lt;span style=&quot;background-color: initial; text-wrap-mode: nowrap;&quot;&gt;Comp_ID: int {key}&lt;/span&gt;&lt;div&gt;&lt;div style=&quot;text-wrap-mode: nowrap;&quot;&gt;- Comp_name: string&lt;/div&gt;&lt;div style=&quot;text-wrap-mode: nowrap;&quot;&gt;- Pichup_Loc: string&lt;/div&gt;&lt;div style=&quot;text-wrap-mode: nowrap;&quot;&gt;- Dropoff_loc: string&lt;/div&gt;&lt;div style=&quot;text-wrap-mode: nowrap;&quot;&gt;- Camp_policy: string&lt;/div&gt;&lt;div style=&quot;text-wrap-mode: nowrap;&quot;&gt;- Comp_Email: string&lt;/div&gt;&lt;div style=&quot;text-wrap-mode: nowrap;&quot;&gt;- Comp_PhoneNum : string&lt;/div&gt;&lt;div style=&quot;text-wrap-mode: nowrap;&quot;&gt;- Comp_Website: string&lt;/div&gt;&lt;/div&gt;&lt;div&gt;&lt;br&gt;&lt;/div&gt;" style="text;strokeColor=none;fillColor=none;align=left;verticalAlign=top;spacingLeft=4;spacingRight=4;overflow=hidden;rotatable=0;points=[[0,0.5],[1,0.5]];portConstraint=eastwest;whiteSpace=wrap;html=1;" vertex="1" parent="iAXqnbAJSWEMFmMfm-S6-5">
          <mxGeometry y="26" width="160" height="124" as="geometry" />
        </mxCell>
        <mxCell id="iAXqnbAJSWEMFmMfm-S6-7" value="" style="line;strokeWidth=1;fillColor=none;align=left;verticalAlign=middle;spacingTop=-1;spacingLeft=3;spacingRight=3;rotatable=0;labelPosition=right;points=[];portConstraint=eastwest;strokeColor=inherit;" vertex="1" parent="iAXqnbAJSWEMFmMfm-S6-5">
          <mxGeometry y="150" width="160" height="50" as="geometry" />
        </mxCell>
        <mxCell id="iAXqnbAJSWEMFmMfm-S6-8" value="Car" style="swimlane;fontStyle=1;align=center;verticalAlign=top;childLayout=stackLayout;horizontal=1;startSize=26;horizontalStack=0;resizeParent=1;resizeParentMax=0;resizeLast=0;collapsible=1;marginBottom=0;whiteSpace=wrap;html=1;" vertex="1" parent="WIyWlLk6GJQsqaUBKTNV-1">
          <mxGeometry x="640" y="249" width="160" height="230" as="geometry" />
        </mxCell>
        <mxCell id="iAXqnbAJSWEMFmMfm-S6-9" value="&lt;div&gt;&lt;span style=&quot;background-color: initial;&quot;&gt;- Car_id: int {key}&amp;nbsp;&lt;/span&gt;&lt;/div&gt;&lt;div&gt;&lt;div&gt;- License_Num: string&lt;/div&gt;&lt;div&gt;- Model: string&lt;/div&gt;&lt;div&gt;- Make: string&lt;/div&gt;&lt;div&gt;- C_Type: string&lt;/div&gt;&lt;div&gt;- C_year: int&lt;/div&gt;&lt;div&gt;- Trans_Type: string&lt;/div&gt;&lt;div&gt;- Num_Seats: int&lt;/div&gt;&lt;div&gt;- Features: string&lt;/div&gt;&lt;div&gt;- Fuel_Type: string&amp;nbsp;&lt;/div&gt;&lt;div&gt;- Rental_Price: currency&lt;/div&gt;&lt;/div&gt;" style="text;strokeColor=none;fillColor=none;align=left;verticalAlign=top;spacingLeft=4;spacingRight=4;overflow=hidden;rotatable=0;points=[[0,0.5],[1,0.5]];portConstraint=eastwest;whiteSpace=wrap;html=1;" vertex="1" parent="iAXqnbAJSWEMFmMfm-S6-8">
          <mxGeometry y="26" width="160" height="174" as="geometry" />
        </mxCell>
        <mxCell id="iAXqnbAJSWEMFmMfm-S6-10" value="" style="line;strokeWidth=1;fillColor=none;align=left;verticalAlign=middle;spacingTop=-1;spacingLeft=3;spacingRight=3;rotatable=0;labelPosition=right;points=[];portConstraint=eastwest;strokeColor=inherit;" vertex="1" parent="iAXqnbAJSWEMFmMfm-S6-8">
          <mxGeometry y="200" width="160" height="30" as="geometry" />
        </mxCell>
        <mxCell id="iAXqnbAJSWEMFmMfm-S6-11" style="edgeStyle=orthogonalEdgeStyle;rounded=0;orthogonalLoop=1;jettySize=auto;html=1;entryX=0;entryY=0.5;entryDx=0;entryDy=0;" edge="1" parent="WIyWlLk6GJQsqaUBKTNV-1" source="iAXqnbAJSWEMFmMfm-S6-6" target="iAXqnbAJSWEMFmMfm-S6-9">
          <mxGeometry relative="1" as="geometry" />
        </mxCell>
      </root>
    </mxGraphModel>
  </diagram>
</mxfile>
